<svg xmlns="http://www.w3.org/2000/svg" xmlns:xlink="http://www.w3.org/1999/xlink" width="33" height="33" viewBox="0 0 33 33">
  <defs>
    <clipPath id="clip-path">
      <rect id="사각형_61" data-name="사각형 61" width="23.179" height="11.539" fill="#fff"/>
    </clipPath>
  </defs>
  <g id="그룹_47" data-name="그룹 47" transform="translate(0.5 0.5)">
    <g id="그룹_43" data-name="그룹 43" transform="translate(4.411 11.086)">
      <g id="그룹_42" data-name="그룹 42" transform="translate(0 0)" clip-path="url(#clip-path)">
        <path id="패스_14" data-name="패스 14" d="M3.356,3.6a2.3,2.3,0,0,0-1.542.785V1.223H0V9.537H1.833V8.885a1.724,1.724,0,0,0,1.523.859,2.794,2.794,0,0,0,2.556-3.1S5.818,3.6,3.356,3.6m-.4,4.387A1.229,1.229,0,0,1,1.791,6.707,1.229,1.229,0,0,1,2.956,5.424,1.228,1.228,0,0,1,4.122,6.707,1.228,1.228,0,0,1,2.956,7.989" transform="translate(0 -1.037)" fill="#fff"/>
        <path id="패스_15" data-name="패스 15" d="M47,0V1.923s.828-.041.828,1.655V8.5h1.748V3.123S49.649,0,47,0" transform="translate(-40.503 0)" fill="#fff"/>
        <path id="패스_16" data-name="패스 16" d="M77.882,17.04a2.961,2.961,0,0,0-3,3.079,2.884,2.884,0,0,0,3,3.038,3,3,0,0,0,3.066-3.038,2.931,2.931,0,0,0-3.066-3.079m0,4.362a1.288,1.288,0,1,1,1.166-1.283A1.229,1.229,0,0,1,77.882,21.4" transform="translate(-64.536 -14.449)" fill="#fff"/>
        <path id="패스_17" data-name="패스 17" d="M129.476,17.238V17.8a1.935,1.935,0,0,0-1.522-.76s-2.566-.119-2.566,3.058c0,0-.028,2.96,2.5,2.96a1.974,1.974,0,0,0,1.593-.76v.466s.128,1.458-1.156,1.458h-.437v1.768h.7s2.65.031,2.65-3.117v-5.63Zm-1.084,4.16a1.288,1.288,0,1,1,1.166-1.283,1.228,1.228,0,0,1-1.166,1.283" transform="translate(-108.06 -14.446)" fill="#fff"/>
      </g>
    </g>
    <path id="패스_19" data-name="패스 19" d="M87.58,16a16,16,0,1,1-16-16,16,16,0,0,1,16,16" transform="translate(-55.58)" fill="none" stroke="#fff" stroke-width="1"/>
  </g>
</svg>
