<svg xmlns="http://www.w3.org/2000/svg" width="33" height="33" viewBox="0 0 33 33">
  <g id="그룹_44" data-name="그룹 44" transform="translate(0.5 0.5)">
    <path id="패스_4" data-name="패스 4" d="M32,16A16,16,0,1,1,16,0,16,16,0,0,1,32,16" fill="none" stroke="#fff" stroke-width="1"/>
    <path id="패스_5" data-name="패스 5" d="M15.646,8.066c.575-.017,1.151,0,1.727,0h.238V5.441c-.307-.027-.63-.066-.951-.078-.59-.024-1.182-.049-1.772-.037a4.781,4.781,0,0,0-2.5.677,3.232,3.232,0,0,0-1.5,2.187,6.622,6.622,0,0,0-.1,1.125c-.017.588,0,1.175,0,1.764V11.3H7.909v2.927h2.849v7.358h3.48V14.238h2.84c.146-.974.287-1.937.437-2.942h-.638c-.808,0-2.662,0-2.662,0s.009-1.45.028-2.08c.028-.863.612-1.126,1.4-1.151" transform="translate(2.377 2.882)" fill="#fff" fill-rule="evenodd"/>
  </g>
</svg>
