<svg xmlns="http://www.w3.org/2000/svg" width="33" height="33" viewBox="0 0 33 33">
  <g id="그룹_45" data-name="그룹 45" transform="translate(0.5 0.5)">
    <path id="패스_6" data-name="패스 6" d="M87.58,16a16,16,0,1,1-16-16,16,16,0,0,1,16,16" transform="translate(-55.58)" fill="none" stroke="#fff" stroke-width="1"/>
    <path id="패스_7" data-name="패스 7" d="M78.5,10.132a4.537,4.537,0,0,0-1.384-2.921,4.739,4.739,0,0,0-3.136-1.274,61.8,61.8,0,0,0-8.464.094,4.32,4.32,0,0,0-3.7,3.323c-.408,1.456-.327,8.166-.088,9.6a4.33,4.33,0,0,0,3.437,3.732,50.655,50.655,0,0,0,9.471.063,4.337,4.337,0,0,0,3.748-3.421c.392-1.495.255-7.854.118-9.2m-1.575,8.549A2.9,2.9,0,0,1,74.2,21.266c-1.38.152-7.544.235-8.824-.123a2.8,2.8,0,0,1-2.127-2.418,57.117,57.117,0,0,1,0-8.635,2.891,2.891,0,0,1,2.71-2.573,60.363,60.363,0,0,1,8.423.034,2.9,2.9,0,0,1,2.58,2.729,61.376,61.376,0,0,1-.035,8.4m-6.84-8.674A4.387,4.387,0,1,0,74.466,14.4a4.387,4.387,0,0,0-4.384-4.389m-.031,7.221a2.837,2.837,0,1,1,2.863-2.811,2.836,2.836,0,0,1-2.863,2.811m5.616-7.387a1.027,1.027,0,1,1-1.024-1.03,1.027,1.027,0,0,1,1.024,1.03" transform="translate(-53.913 1.638)" fill="#fff"/>
    <path id="패스_8" data-name="패스 8" d="M78.5,10.132a4.537,4.537,0,0,0-1.384-2.921,4.739,4.739,0,0,0-3.136-1.274,61.8,61.8,0,0,0-8.464.094,4.32,4.32,0,0,0-3.7,3.323c-.408,1.456-.327,8.166-.088,9.6a4.33,4.33,0,0,0,3.437,3.732,50.655,50.655,0,0,0,9.471.063,4.337,4.337,0,0,0,3.748-3.421c.392-1.495.255-7.854.118-9.2m-1.575,8.549A2.9,2.9,0,0,1,74.2,21.266c-1.38.152-7.544.235-8.824-.123a2.8,2.8,0,0,1-2.127-2.418,57.117,57.117,0,0,1,0-8.635,2.891,2.891,0,0,1,2.71-2.573,60.363,60.363,0,0,1,8.423.034,2.9,2.9,0,0,1,2.58,2.729,61.376,61.376,0,0,1-.035,8.4m-6.84-8.674A4.387,4.387,0,1,0,74.466,14.4a4.387,4.387,0,0,0-4.384-4.389m-.031,7.221a2.837,2.837,0,1,1,2.863-2.811,2.836,2.836,0,0,1-2.863,2.811m5.616-7.387a1.027,1.027,0,1,1-1.024-1.03,1.027,1.027,0,0,1,1.024,1.03" transform="translate(-53.913 1.638)" fill="#fff"/>
  </g>
</svg>
