<svg id="arrow_left_white_48" xmlns="http://www.w3.org/2000/svg" width="48" height="48" viewBox="0 0 48 48">
  <g id="패스_3" data-name="패스 3" fill="#fff">
    <path d="M 24 47.5 C 20.82729911804199 47.5 17.74976921081543 46.87873077392578 14.85289001464844 45.65346145629883 C 12.05459022521973 44.46987915039062 9.541350364685059 42.77537155151367 7.382989883422852 40.61700820922852 C 5.224629878997803 38.45864868164062 3.530119895935059 35.94541168212891 2.346539974212646 33.14710998535156 C 1.121269941329956 30.25023078918457 0.5 27.17270088195801 0.5 24 C 0.5 20.82729911804199 1.121269941329956 17.74976921081543 2.346539974212646 14.85289001464844 C 3.530119895935059 12.05459022521973 5.224629878997803 9.541350364685059 7.382989883422852 7.382989883422852 C 9.541350364685059 5.224629878997803 12.05459022521973 3.530119895935059 14.85289001464844 2.346539974212646 C 17.74976921081543 1.121269941329956 20.82729911804199 0.5 24 0.5 C 27.17270088195801 0.5 30.25023078918457 1.121269941329956 33.14710998535156 2.346539974212646 C 35.94541168212891 3.530119895935059 38.45864868164062 5.224629878997803 40.61700820922852 7.382989883422852 C 42.77537155151367 9.541350364685059 44.46987915039062 12.05459022521973 45.65346145629883 14.85289001464844 C 46.87873077392578 17.74976921081543 47.5 20.82729911804199 47.5 24 C 47.5 27.17270088195801 46.87873077392578 30.25023078918457 45.65346145629883 33.14710998535156 C 44.46987915039062 35.94541168212891 42.77537155151367 38.45864868164062 40.61700820922852 40.61700820922852 C 38.45864868164062 42.77537155151367 35.94541168212891 44.46987915039062 33.14710998535156 45.65346145629883 C 30.25023078918457 46.87873077392578 27.17270088195801 47.5 24 47.5 Z" stroke="none"/>
    <path d="M 24 47 C 27.10541915893555 47 30.1174201965332 46.39202117919922 32.95233154296875 45.19295883178711 C 35.6910400390625 44.03458023071289 38.15085983276367 42.37606048583984 40.26345825195312 40.26345062255859 C 42.37606048583984 38.15084838867188 44.03458023071289 35.6910285949707 45.19295883178711 32.95233154296875 C 46.39202117919922 30.1174201965332 47 27.10541915893555 47 24 C 47 20.89458084106445 46.39202117919922 17.8825798034668 45.19295883178711 15.04767036437988 C 44.03458023071289 12.3089599609375 42.37606048583984 9.849140167236328 40.26345825195312 7.736539840698242 C 38.15085983276367 5.623939990997314 35.6910400390625 3.965420007705688 32.95233154296875 2.807039976119995 C 30.1174201965332 1.607980012893677 27.10541915893555 1 24 1 C 20.89458084106445 1 17.8825798034668 1.607980012893677 15.04767036437988 2.807039976119995 C 12.30897045135498 3.965420007705688 9.849149703979492 5.623939990997314 7.736549854278564 7.736539840698242 C 5.623939990997314 9.849140167236328 3.965420007705688 12.3089599609375 2.807039976119995 15.04767036437988 C 1.607980012893677 17.8825798034668 1 20.89458084106445 1 24 C 1 27.10541915893555 1.607980012893677 30.1174201965332 2.807039976119995 32.95233154296875 C 3.965420007705688 35.6910285949707 5.623939990997314 38.15084838867188 7.736549854278564 40.26345062255859 C 9.849149703979492 42.37606048583984 12.30897045135498 44.03458023071289 15.04767036437988 45.19295883178711 C 17.8825798034668 46.39202117919922 20.89458084106445 47 24 47 M 24 48 C 10.7451696395874 48 -3.552713678800501e-15 37.25482940673828 -3.552713678800501e-15 24 C -3.552713678800501e-15 10.74516010284424 10.7451696395874 -3.552713678800501e-15 24 -3.552713678800501e-15 C 37.25484085083008 -3.552713678800501e-15 48 10.74516010284424 48 24 C 48 37.25482940673828 37.25484085083008 48 24 48 Z" stroke="none" fill="#eee"/>
  </g>
  <path id="패스_1" data-name="패스 1" d="M8.518,17.035,0,8.517,8.518,0" transform="translate(18.017 15.104)" fill="none" stroke="#bdbdbd" stroke-linecap="round" stroke-width="1"/>
</svg>
