<svg id="arrow_left_white_48" xmlns="http://www.w3.org/2000/svg" width="48" height="48" viewBox="0 0 48 48">
  <g id="패스_3" data-name="패스 3" fill="none">
    <path d="M24,48A24,24,0,1,0,0,24,24,24,0,0,0,24,48Z" stroke="none"/>
    <path d="M 24 47 C 27.10541915893555 47 30.1174201965332 46.39202117919922 32.95233154296875 45.19295883178711 C 35.6910400390625 44.03458023071289 38.15085983276367 42.37606048583984 40.26345825195312 40.26345062255859 C 42.37606048583984 38.15084838867188 44.03458023071289 35.6910285949707 45.19295883178711 32.95233154296875 C 46.39202117919922 30.1174201965332 47 27.10541915893555 47 24 C 47 20.89458084106445 46.39202117919922 17.8825798034668 45.19295883178711 15.04767036437988 C 44.03458023071289 12.3089599609375 42.37606048583984 9.849140167236328 40.26345825195312 7.736539840698242 C 38.15085983276367 5.623939990997314 35.6910400390625 3.965420007705688 32.95233154296875 2.807039976119995 C 30.1174201965332 1.607980012893677 27.10541915893555 1 24 1 C 20.89458084106445 1 17.8825798034668 1.607980012893677 15.04767036437988 2.807039976119995 C 12.30897045135498 3.965420007705688 9.849149703979492 5.623939990997314 7.736549854278564 7.736539840698242 C 5.623939990997314 9.849140167236328 3.965420007705688 12.3089599609375 2.807039976119995 15.04767036437988 C 1.607980012893677 17.8825798034668 1 20.89458084106445 1 24 C 1 27.10541915893555 1.607980012893677 30.1174201965332 2.807039976119995 32.95233154296875 C 3.965420007705688 35.6910285949707 5.623939990997314 38.15084838867188 7.736549854278564 40.26345062255859 C 9.849149703979492 42.37606048583984 12.30897045135498 44.03458023071289 15.04767036437988 45.19295883178711 C 17.8825798034668 46.39202117919922 20.89458084106445 47 24 47 M 24 48 C 10.7451696395874 48 -3.552713678800501e-15 37.25482940673828 -3.552713678800501e-15 24 C -3.552713678800501e-15 10.74516010284424 10.7451696395874 -3.552713678800501e-15 24 -3.552713678800501e-15 C 37.25484085083008 -3.552713678800501e-15 48 10.74516010284424 48 24 C 48 37.25482940673828 37.25484085083008 48 24 48 Z" stroke="none" fill="#ee792f"/>
  </g>
  <path id="패스_1" data-name="패스 1" d="M8.518,17.035,0,8.517,8.518,0" transform="translate(18.017 15.104)" fill="none" stroke="#ee792f" stroke-linecap="round" stroke-width="1"/>
</svg>
