<svg xmlns="http://www.w3.org/2000/svg" xmlns:xlink="http://www.w3.org/1999/xlink" width="32" height="32" viewBox="0 0 32 32">
  <defs>
    <clipPath id="clip-path">
      <rect id="사각형_204" data-name="사각형 204" width="30.287" height="27.383" fill="none"/>
    </clipPath>
    <clipPath id="clip-path-2">
      <path id="패스_332" data-name="패스 332" d="M68.406,66.958l-3.89-.691,3.321,1.621-3.709-1.339,2.888,2.163-3.351-1.941,2.313,2.622-2.767-2.465L64.771,69.9,62.749,67l.694,3.213-1.151-3.142-.234,3.747-.234-3.747-1.151,3.142L61.368,67l-2.021,2.9L60.9,66.927l-2.767,2.465,2.313-2.622L57.1,68.711l2.889-2.163-3.71,1.339L59.6,66.267l-3.889.691,2.838-.856-.657.017L54.4,67.267l3.87-.585-3.186,1.705,3.619-1.159-2.63,2.151L59.286,67.7l-1.959,2.5,2.659-2.131-1.2,2.745,1.994-2.488-.394,2.867,1.241-2.736.433,2.957.433-2.957,1.24,2.736-.393-2.867,1.994,2.488-1.2-2.745L66.789,70.2l-1.959-2.5L68.04,69.38l-2.63-2.151,3.619,1.159-3.186-1.705,3.87.585-3.489-1.148-.656-.017Z" transform="translate(-54.403 -66.102)" fill="none"/>
    </clipPath>
    <linearGradient id="linear-gradient" x1="-0.489" y1="3.442" x2="-0.48" y2="3.442" gradientUnits="objectBoundingBox">
      <stop offset="0" stop-color="#007cb9"/>
      <stop offset="0.1" stop-color="#007cb9"/>
      <stop offset="0.9" stop-color="#003a74"/>
      <stop offset="1" stop-color="#003a74"/>
    </linearGradient>
    <clipPath id="clip-path-3">
      <path id="패스_333" data-name="패스 333" d="M74.37,67.022l-2.809-1.064,1.9,1.436-2.214-1.312,1.33,1.542-1.62-1.468.815,1.614-1.1-1.542.319,1.612-.6-1.569-.144,1.6-.144-1.6-.6,1.569.319-1.612-1.1,1.542.815-1.614-1.619,1.468,1.33-1.542-2.214,1.312,1.9-1.436L66.13,67.022l2.3-1.126h-.131l-3.02.564,2.043-.549-.577.012L63.9,66.78l3.889-.691L64.47,67.71l3.71-1.339L65.29,68.534l3.351-1.941-2.313,2.622L69.1,66.75l-1.558,2.974,2.021-2.9-.694,3.213L70.016,66.9l.234,3.747.234-3.747,1.151,3.142-.694-3.213,2.022,2.9L71.4,66.75l2.767,2.465-2.313-2.622,3.351,1.941L72.32,66.37,76.03,67.71l-3.321-1.62,3.89.691-2.838-.856-.577-.012,2.043.549L72.205,65.9h-.131Z" transform="translate(-63.902 -65.896)" fill="none"/>
    </clipPath>
    <linearGradient id="linear-gradient-2" x1="-0.693" y1="3.857" x2="-0.682" y2="3.857" gradientUnits="objectBoundingBox">
      <stop offset="0" stop-color="#54c7f5"/>
      <stop offset="1" stop-color="#003a74"/>
    </linearGradient>
    <clipPath id="clip-path-5">
      <path id="패스_337" data-name="패스 337" d="M49.612,8.315v.661c.321-.03.484-.045.826-.074l1.641-.587-2.344-.861L52.206,7.1,50.093,5.77l2.492.167L50.793,4.2l2.4.681L51.806,2.8l2.208,1.166-.928-2.318L55,3.25,54.576.79,56.12,2.753l.095-2.5,1.1,2.241L57.927.078,58.538,2.5l1.1-2.241.095,2.5L61.277.79,60.851,3.25l1.917-1.6L61.84,3.969,64.048,2.8l-1.39,2.074,2.4-.681-1.791,1.74L65.76,5.77,63.647,7.1l2.471.355-2.344.861,1.641.587c.342.029.505.044.826.074V8.315a8.315,8.315,0,1,0-16.63,0" transform="translate(-49.612)" fill="none"/>
    </clipPath>
    <radialGradient id="radial-gradient" cx="0.5" cy="0.925" r="0.926" gradientUnits="objectBoundingBox">
      <stop offset="0" stop-color="#54c7f5"/>
      <stop offset="0.55" stop-color="#54c7f5"/>
      <stop offset="0.673" stop-color="#52c4f2"/>
      <stop offset="0.747" stop-color="#4dbceb"/>
      <stop offset="0.809" stop-color="#44addd"/>
      <stop offset="0.863" stop-color="#3899cb"/>
      <stop offset="0.912" stop-color="#297fb3"/>
      <stop offset="0.957" stop-color="#165f96"/>
      <stop offset="1" stop-color="#003a74"/>
    </radialGradient>
    <clipPath id="clip-path-7">
      <path id="패스_340" data-name="패스 340" d="M20.4,63.752l-2.7.054-2.554.015-2.555-.015-2.7-.054-.513-.083c-.4.031-.808.064-1.211.1l-.338.028-.174.014c-.342.029-.505.044-.826.074-2.194.191-4.511.466-6.829.857v.14c4.21-.534,7.775-.765,10.977-.857L11.634,64l.577-.012q.494-.009.977-.015h.131q.928-.01,1.825-.01t1.825.01H17.1q.484.006.978.015l.577.012.656.017c3.2.092,6.768.323,10.977.857v-.14c-2.318-.391-4.634-.666-6.828-.857-.321-.03-.484-.045-.826-.074l-.174-.014-.338-.028c-.4-.033-.81-.065-1.211-.1Z" transform="translate(0 -63.669)" fill="none"/>
    </clipPath>
    <radialGradient id="radial-gradient-2" cx="0.5" cy="-0.359" r="12.603" gradientUnits="objectBoundingBox">
      <stop offset="0" stop-color="#ffe860"/>
      <stop offset="0.3" stop-color="#ffe860"/>
      <stop offset="0.75" stop-color="#ffbe1a"/>
      <stop offset="1" stop-color="#ffbe1a"/>
    </radialGradient>
    <clipPath id="clip-path-8">
      <path id="패스_341" data-name="패스 341" d="M63.537,10.5,62.371,6.8l.438,3.849L60.9,7.283l1.228,3.674-2.568-2.9L61.525,11.4l-3.115-2.3,2.616,2.857L57.5,10.343l3.154,2.251-3.783-.837L60.424,13.3,56.55,13.27l3.8.773-2.2.449h0l.513.083h0l3.779-.343-4.143-.779,4.175.391L58.539,12.3l4.025,1.171-3.545-2.25,3.7,1.957-3-2.913,3.211,2.684L60.59,9.475l2.583,3.293-1.56-3.883,1.842,3.758L62.736,8.52l1.021,4.059L63.91,8.4l.154,4.182L65.084,8.52l-.719,4.123,1.842-3.758-1.56,3.883L67.23,9.475,64.9,12.949l3.211-2.684-3,2.913,3.7-1.957-3.545,2.25L69.281,12.3l-3.93,1.546,4.175-.391-4.143.779,3.779.343.513-.083-2.2-.449,3.8-.773L67.4,13.3l3.552-1.546-3.783.837,3.153-2.251-3.526,1.605,2.616-2.857-3.115,2.3L68.26,8.056l-2.568,2.9L66.92,7.283l-1.908,3.371L65.448,6.8,64.282,10.5,63.91,6.643Z" transform="translate(-56.55 -6.643)" fill="none"/>
    </clipPath>
    <radialGradient id="radial-gradient-3" cx="0.501" cy="0.931" r="1.921" xlink:href="#radial-gradient-2"/>
    <clipPath id="clip-path-10">
      <path id="패스_384" data-name="패스 384" d="M194.977,171.029a.332.332,0,0,0-.012.094c0,.143.111.186.212.269a.177.177,0,0,1,.058.123.091.091,0,0,1-.093.1h0c-.051,0-.078-.033-.078-.138,0-.034-.022-.038-.046-.038h-.026c-.02,0-.025.015-.025.035,0,.148.072.247.191.247a.183.183,0,0,0,.171-.2c0-.248-.275-.255-.275-.389a.132.132,0,0,1,0-.039.079.079,0,0,1,.073-.066c.067,0,.08.045.1.114a.024.024,0,0,0,.026.018c.013,0,.028-.006.042-.008s.01-.04.014-.058a.2.2,0,0,0-.172-.174.148.148,0,0,0-.163.113" transform="translate(-194.964 -170.916)" fill="none"/>
    </clipPath>
    <clipPath id="clip-path-12">
      <path id="패스_386" data-name="패스 386" d="M198.64,171c-.051,0-.146.473-.177.609a3.449,3.449,0,0,0-.135-.6.6.6,0,0,0-.11-.011c-.036,0-.039.037-.039.08v.024c.038.016.038.054.038.081v.448c0,.036-.007.07-.007.107,0,.015,0,.036.011.046h.042c.019,0,.038,0,.038-.02,0-.082,0-.167-.006-.253s-.008-.183-.008-.271a.863.863,0,0,1,.006-.1c.02.1.055.288.085.434a1.485,1.485,0,0,0,.048.2l.007,0a.282.282,0,0,0,.032,0,.036.036,0,0,0,.035-.017s.009-.032.021-.078c.034-.135.1-.4.121-.459l0,.02c0,.107-.006.214-.006.322,0,.022,0,.047,0,.069,0,.08.009.154.087.154.035,0,.04-.009.04-.055V171.7l0-.009c-.038,0-.042-.054-.042-.091,0-.108.01-.217.01-.327v-.206c0-.062-.023-.071-.066-.071Z" transform="translate(-198.178 -171)" fill="none"/>
    </clipPath>
  </defs>
  <g id="그룹_524" data-name="그룹 524" transform="translate(-78 -3203)">
    <rect id="사각형_218" data-name="사각형 218" width="32" height="32" transform="translate(78 3203)" fill="none"/>
    <g id="그룹_423" data-name="그룹 423" transform="translate(78.856 3205.308)">
      <g id="그룹_400" data-name="그룹 400">
        <g id="그룹_399" data-name="그룹 399" clip-path="url(#clip-path)">
          <path id="패스_331" data-name="패스 331" d="M22.8,67.372l-3.87-.585,3.185,1.706L18.5,67.334l2.63,2.151L17.918,67.8l1.959,2.5-2.659-2.131,1.2,2.745-1.993-2.488L16.82,71.3l-1.24-2.735-.433,2.957-.433-2.957L13.473,71.3l.393-2.867-1.994,2.488,1.2-2.745-2.659,2.131,1.959-2.5-3.21,1.681,2.63-2.151L8.176,68.493l3.186-1.706-3.87.585,3.489-1.148c-3.2.092-6.767.323-10.977.857V77.434H30.29V67.081c-4.209-.534-7.775-.765-10.977-.857Z" transform="translate(-0.003 -57.109)" fill="#003a74"/>
        </g>
      </g>
      <g id="그룹_402" data-name="그룹 402" transform="translate(7.488 9.099)">
        <g id="그룹_401" data-name="그룹 401" clip-path="url(#clip-path-2)">
          <rect id="사각형_205" data-name="사각형 205" width="15.31" height="5.312" transform="translate(0 0)" fill="url(#linear-gradient)"/>
        </g>
      </g>
      <g id="그룹_404" data-name="그룹 404" transform="translate(8.796 9.07)">
        <g id="그룹_403" data-name="그룹 403" clip-path="url(#clip-path-3)">
          <rect id="사각형_206" data-name="사각형 206" width="12.696" height="4.748" transform="translate(0 0)" fill="url(#linear-gradient-2)"/>
        </g>
      </g>
      <g id="그룹_406" data-name="그룹 406">
        <g id="그룹_405" data-name="그룹 405" clip-path="url(#clip-path)">
          <path id="패스_334" data-name="패스 334" d="M82.9,65.9,81,67.333l2.214-1.312-1.33,1.542L83.5,66.1l-.815,1.614,1.1-1.542-.319,1.612.6-1.569.144,1.6.144-1.6.6,1.569-.319-1.612,1.1,1.542L84.918,66.1l1.619,1.468-1.33-1.542,2.214,1.312L85.52,65.9l2.809,1.064-2.3-1.126q-.929-.01-1.825-.009t-1.825.009l-2.295,1.126Z" transform="translate(-69.065 -56.765)" fill="#54c7f5"/>
          <path id="패스_335" data-name="패스 335" d="M125.2,65.921q-.494-.009-.978-.015l3.02.564Z" transform="translate(-107.127 -56.834)" fill="#54c7f5"/>
          <path id="패스_336" data-name="패스 336" d="M76.89,65.906q-.484.006-.978.015l-2.043.55Z" transform="translate(-63.702 -56.834)" fill="#54c7f5"/>
        </g>
      </g>
      <g id="그룹_408" data-name="그룹 408" transform="translate(6.829)">
        <g id="그룹_407" data-name="그룹 407" clip-path="url(#clip-path-5)">
          <rect id="사각형_208" data-name="사각형 208" width="16.63" height="8.976" fill="url(#radial-gradient)"/>
        </g>
      </g>
      <g id="그룹_410" data-name="그룹 410">
        <g id="그룹_409" data-name="그룹 409" clip-path="url(#clip-path)">
          <path id="패스_338" data-name="패스 338" d="M51.718,9.348l1.89-.545-2.918-.841,3.03-.216-2.68-1.43,3.008.418L51.724,4.779l2.855,1.035-1.866-2.4,2.578,1.605L53.963,2.292,56.151,4.4,55.42,1.45l1.7,2.515L57.021.93l1.142,2.814.532-2.99.532,2.99L60.368.93l-.1,3.035,1.7-2.515L61.238,4.4l2.188-2.107L62.1,5.023h0l2.578-1.606-1.866,2.4,2.855-1.035L63.341,6.734l3.008-.418L63.67,7.746l3.029.216L63.781,8.8l1.89.545.338.027.174.015L64.542,8.8l2.344-.861-2.472-.355,2.114-1.33-2.492.167,1.791-1.74-2.4.681,1.39-2.075L62.608,4.457l.928-2.318-1.917,1.6.426-2.461L60.5,3.241l-.095-2.5-1.1,2.241L58.694.566l-.611,2.421L56.982.746l-.094,2.5L55.344,1.278l.426,2.461-1.917-1.6.928,2.318L52.573,3.291l1.39,2.075-2.4-.681,1.791,1.74L50.86,6.258l2.114,1.33L50.5,7.942l2.344.861-1.641.587.174-.015.338-.027" transform="translate(-43.551 -0.488)" fill="#007cb9"/>
          <path id="패스_339" data-name="패스 339" d="M67.873,9.142l-3.029-.216L67.523,7.5l-3.008.418,2.324-1.955L63.984,6.993,65.85,4.6,63.272,6.2,64.6,3.471,62.412,5.578l.73-2.948-1.7,2.516.1-3.035L60.4,4.924l-.532-2.99-.532,2.99L58.2,2.11l.1,3.035L56.6,2.63l.73,2.948L55.138,3.471,56.465,6.2,53.887,4.6l1.867,2.4L52.9,5.959l2.323,1.955h0L52.214,7.5l2.68,1.43-3.03.216,2.918.841-1.89.545c.4-.033.81-.065,1.211-.1h0l2.2-.449-3.8-.774,3.874.032L52.83,7.7l3.783.837L53.459,6.283l3.526,1.605L54.369,5.031l3.116,2.3L55.519,4l2.568,2.9L56.859,3.222l1.909,3.371-.438-3.85L59.5,6.439l.372-3.856.372,3.856,1.166-3.695-.437,3.85,1.909-3.371L61.65,6.9,64.219,4,62.253,7.335l3.115-2.3L62.752,7.888l3.526-1.605L63.124,8.533,66.907,7.7,63.355,9.242l3.874-.032-3.8.774,2.2.449c.4.031.808.063,1.211.1l-1.89-.545Z" transform="translate(-44.725 -1.668)" fill="#ffbe1a"/>
        </g>
      </g>
      <g id="그룹_412" data-name="그룹 412" transform="translate(0 8.764)">
        <g id="그룹_411" data-name="그룹 411" clip-path="url(#clip-path-7)">
          <rect id="사각형_210" data-name="사각형 210" width="30.287" height="1.209" transform="translate(0 0)" fill="url(#radial-gradient-2)"/>
        </g>
      </g>
      <g id="그룹_414" data-name="그룹 414" transform="translate(7.784 0.914)">
        <g id="그룹_413" data-name="그룹 413" clip-path="url(#clip-path-8)">
          <rect id="사각형_211" data-name="사각형 211" width="14.72" height="7.932" transform="translate(0)" fill="url(#radial-gradient-3)"/>
        </g>
      </g>
      <g id="그룹_416" data-name="그룹 416">
        <g id="그룹_415" data-name="그룹 415" clip-path="url(#clip-path)">
          <path id="패스_342" data-name="패스 342" d="M80.446,24.436l-4.175.391,3.93-1.546-4.025,1.171L79.72,22.2l-3.7,1.958,3-2.913-3.211,2.684,2.334-3.474L75.566,23.75l1.56-3.883-1.842,3.758L76,19.5l-1.021,4.059-.154-4.182-.154,4.182L73.654,19.5l.719,4.123-1.842-3.758,1.56,3.883-2.583-3.293,2.333,3.474-3.211-2.684,3,2.913-3.7-1.958,3.545,2.25-4.025-1.171,3.93,1.546-4.175-.391,4.143.779-3.778.343h0l2.7.054,2.555.014,2.554-.014,2.7-.054L76.3,25.215Z" transform="translate(-59.685 -16.711)" fill="#fff9bf"/>
          <path id="패스_343" data-name="패스 343" d="M114.279,83.489V82H113.2v1.485h-1.039V80.071H113.2v1.421h1.082V80.071h1.045v3.418Z" transform="translate(-96.72 -69.049)" fill="#fff"/>
          <path id="패스_344" data-name="패스 344" d="M201.654,78.006h.47c.327,0,.476.12.476.38v3.323h-.946Z" transform="translate(-173.897 -67.269)" fill="#fff"/>
          <path id="패스_345" data-name="패스 345" d="M177.806,87.863a3.6,3.6,0,0,0,1.259-.195,1.456,1.456,0,0,0-.087-.239.27.27,0,0,0-.219-.176c-.2,0-.381.1-.772.1-.484,0-.742-.194-.8-.582h2.026a1.447,1.447,0,0,0-1.473-1.684,1.366,1.366,0,0,0-1.53,1.381c0,.86.557,1.377,1.6,1.394m-.683-1.508c-.008-.472.227-.8.591-.8s.529.276.535.8Z" transform="translate(-151.953 -73.375)" fill="#fff"/>
          <path id="패스_346" data-name="패스 346" d="M139.8,87.854a1.392,1.392,0,1,1,1.492-1.391,1.332,1.332,0,0,1-1.492,1.391m0-2.3c-.432,0-.507.407-.507.894s.083.884.507.884c.439,0,.515-.4.515-.879s-.076-.9-.515-.9" transform="translate(-119.267 -73.367)" fill="#fff"/>
          <path id="패스_347" data-name="패스 347" d="M163.265,80.661v-.482h-.517v-.453c0-.26-.15-.38-.477-.38H161.8v.833h-.264v.482h.264v1.462c0,.472.35.771.991.771a1.379,1.379,0,0,0,.474-.07v-.463a.877.877,0,0,1-.2.025c-.2,0-.32-.085-.32-.333V80.661Z" transform="translate(-139.3 -68.424)" fill="#fff"/>
          <path id="패스_348" data-name="패스 348" d="M187.531,133.516a.328.328,0,1,0,.333.329.331.331,0,0,0-.333-.329Zm0,.052h0a.278.278,0,0,1,.279.277h0a.28.28,0,1,1-.28-.278" transform="translate(-161.431 -115.138)" fill="#fff" fill-rule="evenodd"/>
          <path id="패스_349" data-name="패스 349" d="M188.628,134.657v-.106h.1a.053.053,0,1,1,0,.106Zm.137.116,0,.075,0,.018h.074l0-.015-.007-.109c0-.011-.027-.053-.057-.053a.1.1,0,0,0,.074-.084v-.021a.109.109,0,0,0-.1-.1h-.208v.377h.081v-.149h.077a.069.069,0,0,1,.06.057" transform="translate(-162.594 -115.977)" fill="#fff" fill-rule="evenodd"/>
          <path id="패스_350" data-name="패스 350" d="M119.808,111.584h-.47v2.664h.947v-2.285c0-.26-.149-.38-.476-.38m.015-.418c.295,0,.537-.159.537-.348s-.242-.348-.537-.348-.523.154-.523.348.235.348.523.348" transform="translate(-102.878 -95.264)" fill="#fff"/>
          <path id="패스_351" data-name="패스 351" d="M94.306,121.28a1.689,1.689,0,0,0,.851-.252c.059.135.2.2.443.2h.47v-2.664h-.947v1.974a.9.9,0,0,1-.573.177.473.473,0,0,1-.52-.442v-1.708h-.95V120.2c0,.765.559,1.081,1.225,1.081" transform="translate(-80.269 -102.243)" fill="#fff"/>
          <path id="패스_352" data-name="패스 352" d="M72.416,116.345c.886,0,1.477-.387,1.477-.978,0-.428-.318-.681-.916-1.014-.485-.268-.644-.4-.644-.631s.2-.346.49-.361h0a5.657,5.657,0,0,1,.642.112.239.239,0,0,0,.2-.17c.054-.134.1-.276.1-.276a3.489,3.489,0,0,0-1.052-.2c-.818,0-1.393.368-1.393.944,0,.373.257.656.825.974.492.273.666.417.666.666,0,.2-.234.358-.583.358s-.487-.13-.68-.13a.262.262,0,0,0-.214.186c-.059.146-.1.3-.1.3a3.125,3.125,0,0,0,1.2.219" transform="translate(-61.418 -97.298)" fill="#fff"/>
          <path id="패스_353" data-name="패스 353" d="M167.41,120.569a4.862,4.862,0,0,1-.753-.116.281.281,0,0,0-.236.175,1.624,1.624,0,0,0-.1.249,2.552,2.552,0,0,0,1.178.223c.9,0,1.438-.376,1.438-.84,0-.312-.168-.564-.9-.782-.295-.089-.525-.208-.542-.394-.011-.114.091-.229.36-.229a3.4,3.4,0,0,1,.652.117.278.278,0,0,0,.237-.174,1.651,1.651,0,0,0,.1-.249,2.489,2.489,0,0,0-1.1-.208c-.758,0-1.263.366-1.263.821,0,.277.154.549.849.742.351.1.522.216.54.4.015.162-.2.249-.458.263" transform="translate(-143.424 -102.052)" fill="#fff"/>
          <path id="패스_354" data-name="패스 354" d="M40.907,116.413h-1.2c-.282-.032-.483-.157-.483-.355s.184-.344.552-.344c.047,0,.091,0,.135.006.243.029.323.15.515.15a.252.252,0,0,0,.227-.156l.14-.244a2.293,2.293,0,0,0-.886-.236l-.05,0h-.021c-.086-.007-.176-.011-.268-.011-.79,0-1.3.317-1.3.772,0,.313.245.537.674.666v.014c-.478.124-.931.39-.931.873,0,.606.643.927,1.7.927a3.646,3.646,0,0,0,1.348-.188v-1.4h.071c.228,0,.28-.094.279-.265v-.206Zm-.779,1.564a1.2,1.2,0,0,1-.362.041c-.514,0-.734-.188-.734-.524,0-.395.353-.625,1.1-.625Z" transform="translate(-32.782 -99.358)" fill="#fff"/>
          <path id="패스_355" data-name="패스 355" d="M144.835,120.988a3.634,3.634,0,0,0,1.26-.195,1.478,1.478,0,0,0-.087-.239.271.271,0,0,0-.219-.177c-.2,0-.381.1-.773.1-.485,0-.742-.194-.8-.582h2.027a1.448,1.448,0,0,0-1.473-1.685,1.367,1.367,0,0,0-1.531,1.382c0,.861.558,1.379,1.6,1.4m-.683-1.51c-.008-.472.228-.8.591-.8s.53.276.536.8Z" transform="translate(-123.519 -101.939)" fill="#fff"/>
          <path id="패스_356" data-name="패스 356" d="M130.982,113.834v-.482h-.518V112.9c0-.26-.149-.38-.476-.38h-.47v.832h-.264v.482h.264v1.461c0,.472.349.77.99.77a1.369,1.369,0,0,0,.474-.07v-.462a.873.873,0,0,1-.2.025c-.2,0-.321-.084-.321-.333v-1.391Z" transform="translate(-111.463 -97.032)" fill="#fff"/>
          <path id="패스_357" data-name="패스 357" d="M41.429,87.59a10.1,10.1,0,0,1-1.477.091c-.965-.007-1.434-.282-1.419-.865.017-.737.975-.854,1.952-.932v-.045c0-.265-.31-.352-.588-.352-.333,0-.644.126-.841.126a.269.269,0,0,1-.219-.176c-.061-.132-.114-.3-.114-.3a4.126,4.126,0,0,1,1.345-.214c.774,0,1.362.261,1.362,1.024Zm-.947-1.285c-.421.029-.972.107-.982.477-.007.273.226.385.525.385.1,0,.232-.006.46-.02Z" transform="translate(-33.229 -73.235)" fill="#fff"/>
          <path id="패스_358" data-name="패스 358" d="M62.777,88.155a.516.516,0,0,1-.52.374h-.6l.353-.829-1.223-2.417h.549a.545.545,0,0,1,.542.37c.383.77.555,1.109.555,1.109l.631-1.482h.955s-.765,1.783-1.238,2.875" transform="translate(-52.417 -73.542)" fill="#fff"/>
          <path id="패스_359" data-name="패스 359" d="M12.89,79.895H11.4v3.4H12.89c1.39,0,1.894-.783,1.894-1.7s-.5-1.7-1.894-1.7m.046,2.821h-.509v-2.24h.509c.459,0,.811.275.811,1.119s-.352,1.12-.811,1.12" transform="translate(-9.827 -68.898)" fill="#fff"/>
          <path id="패스_360" data-name="패스 360" d="M85.317,87.2a4.822,4.822,0,0,1-.75-.115.28.28,0,0,0-.236.174,1.638,1.638,0,0,0-.1.248,2.542,2.542,0,0,0,1.175.222c.895,0,1.433-.375,1.433-.838,0-.311-.167-.562-.895-.779-.294-.089-.523-.208-.541-.393-.011-.114.092-.228.359-.228a3.362,3.362,0,0,1,.65.117.279.279,0,0,0,.236-.174,1.59,1.59,0,0,0,.1-.249,2.49,2.49,0,0,0-1.1-.207c-.755,0-1.259.365-1.259.818,0,.276.153.547.846.739.35.1.521.216.538.4.015.161-.2.248-.456.262" transform="translate(-72.634 -73.282)" fill="#fff"/>
          <rect id="사각형_212" data-name="사각형 212" width="0.195" height="1.512" transform="translate(4.74 20.937)" fill="#003a74"/>
          <path id="패스_361" data-name="패스 361" d="M41.489,155.344c0-.112,0-.2-.009-.294h.175l.011.179h0a.4.4,0,0,1,.359-.2c.15,0,.384.09.384.462v.648h-.2v-.626c0-.175-.065-.321-.251-.321a.29.29,0,0,0-.278.294v.653h-.2Z" transform="translate(-35.77 -133.686)" fill="#003a74"/>
          <path id="패스_362" data-name="패스 362" d="M53.972,156.107a.729.729,0,0,1-.312.063.516.516,0,0,1-.541-.554.552.552,0,0,1,.583-.577.663.663,0,0,1,.273.056l-.045.153a.455.455,0,0,0-.229-.051.409.409,0,0,0-.006.817.561.561,0,0,0,.242-.054Z" transform="translate(-45.807 -133.699)" fill="#003a74"/>
          <path id="패스_363" data-name="패스 363" d="M64.087,151.52h.2v.677h0a.365.365,0,0,1,.141-.139.406.406,0,0,1,.2-.056c.146,0,.379.09.379.464v.646h-.2v-.624c0-.175-.065-.323-.251-.323a.284.284,0,0,0-.265.2.243.243,0,0,0-.013.094v.655h-.2Z" transform="translate(-55.266 -130.664)" fill="#003a74"/>
          <path id="패스_364" data-name="패스 364" d="M75.852,155.627a.348.348,0,0,0,.372.377.717.717,0,0,0,.3-.056l.034.141a.881.881,0,0,1-.361.067.5.5,0,0,1-.534-.547.527.527,0,0,1,.509-.585.46.46,0,0,1,.449.511.828.828,0,0,1-.006.092Zm.579-.141a.281.281,0,0,0-.273-.321.327.327,0,0,0-.3.321Z" transform="translate(-65.249 -133.686)" fill="#003a74"/>
          <path id="패스_365" data-name="패스 365" d="M87.986,155.583a.531.531,0,0,1-.541.576.516.516,0,0,1-.52-.559.53.53,0,0,1,.538-.576.514.514,0,0,1,.523.559m-.862.011c0,.238.137.417.33.417s.33-.177.33-.422c0-.184-.092-.417-.325-.417s-.334.215-.334.422" transform="translate(-74.96 -133.686)" fill="#003a74"/>
          <path id="패스_366" data-name="패스 366" d="M99.486,155.344c0-.112,0-.2-.009-.294h.175l.011.179h0a.4.4,0,0,1,.359-.2c.15,0,.384.09.384.462v.648h-.2v-.626c0-.175-.065-.321-.251-.321a.28.28,0,0,0-.265.2.288.288,0,0,0-.013.092v.653h-.2Z" transform="translate(-85.784 -133.686)" fill="#003a74"/>
          <path id="패스_367" data-name="패스 367" d="M117.814,153.143l-.157.476h-.2l.513-1.512h.236l.516,1.512h-.209l-.161-.476Zm.5-.152-.148-.435c-.034-.1-.056-.188-.079-.276h0c-.023.09-.047.182-.076.274l-.149.438Z" transform="translate(-101.288 -131.169)" fill="#003a74"/>
          <path id="패스_368" data-name="패스 368" d="M131.326,152.213a.116.116,0,0,1-.125.121.117.117,0,0,1-.119-.121.12.12,0,0,1,.123-.123.117.117,0,0,1,.121.123m-.219.305h.2V153.6h-.2Z" transform="translate(-113.039 -131.155)" fill="#003a74"/>
          <path id="패스_369" data-name="패스 369" d="M138.114,155.388c0-.128,0-.238-.009-.339h.173l.007.213h.009a.325.325,0,0,1,.3-.238.209.209,0,0,1,.056.007v.186a.284.284,0,0,0-.067-.007.277.277,0,0,0-.265.253.578.578,0,0,0-.009.092v.579h-.2Z" transform="translate(-119.095 -133.686)" fill="#003a74"/>
          <path id="패스_370" data-name="패스 370" d="M146.608,155.4c0-.139,0-.251-.009-.354h.178l.009.186h0a.427.427,0,0,1,.386-.211.492.492,0,0,1,.46.552.514.514,0,0,1-.494.583.38.38,0,0,1-.334-.171h0v.59h-.195Zm.195.29a.469.469,0,0,0,.009.081.3.3,0,0,0,.3.231c.209,0,.33-.17.33-.42,0-.217-.115-.4-.323-.4a.316.316,0,0,0-.3.245.328.328,0,0,0-.013.081Z" transform="translate(-126.42 -133.686)" fill="#003a74"/>
          <path id="패스_371" data-name="패스 371" d="M159.525,155.583a.531.531,0,0,1-.541.576.516.516,0,0,1-.52-.559.53.53,0,0,1,.538-.576.514.514,0,0,1,.523.559m-.861.011c0,.238.137.417.33.417s.33-.177.33-.422c0-.184-.092-.417-.325-.417s-.334.215-.334.422" transform="translate(-136.652 -133.686)" fill="#003a74"/>
          <path id="패스_372" data-name="패스 372" d="M171.028,155.388c0-.128,0-.238-.009-.339h.173l.007.213h.009a.326.326,0,0,1,.3-.238.216.216,0,0,1,.056.007v.186a.285.285,0,0,0-.067-.007.277.277,0,0,0-.265.253.565.565,0,0,0-.009.092v.579h-.2Z" transform="translate(-147.479 -133.686)" fill="#003a74"/>
          <path id="패스_373" data-name="패스 373" d="M179.364,152.938v.312h.283v.15h-.283v.586c0,.135.038.211.148.211a.43.43,0,0,0,.114-.014l.009.148a.487.487,0,0,1-.175.027.274.274,0,0,1-.213-.083.4.4,0,0,1-.076-.283V153.4H179v-.15h.169v-.26Z" transform="translate(-154.364 -131.887)" fill="#003a74"/>
          <path id="패스_374" data-name="패스 374" d="M19.816,172.85c0,.908-.162,1.266-.9,1.266-.19,0-.384-.018-.573-.018-.045,0-.068-.006-.072-.065,0-.023,0-.053,0-.076,0-.416-.032-.838-.032-1.254v-.393c0-.445.059-.89.059-1.335a.929.929,0,0,0-.036-.334c-.041-.093-.131-.029-.131-.176,0-.1.018-.176.108-.176a.309.309,0,0,1,.073.012,2.672,2.672,0,0,1,.649-.012.646.646,0,0,1,.69.369,1.95,1.95,0,0,1,.127.644,1.131,1.131,0,0,1-.257.685.966.966,0,0,1,.293.861m-1.227-.6c-.045.012-.04.123-.04.164,0,.4.027.791.027,1.189,0,.041,0,.135.046.135.2,0,.4-.041.6-.041.221,0,.32-.351.32-.592,0-.533-.054-.89-.537-.89a1.643,1.643,0,0,0-.415.035m.37-1.575h-.266c-.049,0-.14.011-.14.1,0,.369,0,.738,0,1.107l.018.018a.235.235,0,0,0,.063.006c.419,0,.808-.041.808-.72,0-.392-.221-.509-.487-.509" transform="translate(-15.638 -146.838)" fill="#ffbe1a"/>
          <path id="패스_375" data-name="패스 375" d="M34.562,173.235a.722.722,0,0,1-.654.7c-.474,0-.744-.352-.911-.844a2.089,2.089,0,0,1-.09-.293c-.108,0-.216-.012-.311-.012a1.175,1.175,0,0,0-.315.053c-.055.041-.055.182-.063.246-.054.3-.095.55-.122.832a.1.1,0,0,1-.085.029c-.076,0-.212-.006-.212-.152a2,2,0,0,1,.059-.351c.135-.961.32-1.874.487-2.817a3.258,3.258,0,0,0,.08-.48c.032-.041.122-.047.2-.047h.085c.1,0,.158.609.176.738.068.487.14.984.284,1.728.041.2.239,1.013.717,1.013.207,0,.37-.229.437-.463a.051.051,0,0,1,.054-.041c.073,0,.185.076.185.158m-1.7-.8c-.049-.533-.144-1.289-.265-1.95-.1.574-.208,1.388-.3,1.962a1.441,1.441,0,0,0,.568-.012m1.015-.662a.055.055,0,0,1,.032.053c0,.082-.009.158-.009.24,0,.287.113.451.338.451a.366.366,0,0,0,.37-.4c0-.586-1.042-.633-1.042-1.377a.644.644,0,0,1,.645-.7.689.689,0,0,1,.685.744c0,.123-.086.135-.171.135h-.077c-.032,0-.036-.029-.036-.059v-.053a.425.425,0,0,0-.366-.445.417.417,0,0,0-.41.375.459.459,0,0,0,.162.281c.351.31.911.369.911,1.136a.657.657,0,0,1-.668.674.634.634,0,0,1-.622-.633.91.91,0,0,1,.031-.369c.041-.088.149-.07.225-.053" transform="translate(-27.421 -146.637)" fill="#ffbe1a"/>
          <path id="패스_376" data-name="패스 376" d="M56.228,174.252c-.059.006-.117.012-.176.012a.334.334,0,0,1-.108-.017,7.736,7.736,0,0,0,.041-1.013c0-.72.049-1.189,0-1.956,0-.211-.014-.457-.167-.457-.045-.029-.036-.123-.036-.211,0-.129.068-.141.135-.141.289,0,.311.4.311.662v.146c0,.229,0,.521,0,.732.208-.322.375-.627.545-.908a6.419,6.419,0,0,0,.379-.7.145.145,0,0,1,.085-.017c.041,0,.235.006.235.082,0,.093-.632.949-.654,1.113a9.835,9.835,0,0,0,.627,2.331.273.273,0,0,1,.068-.012c.036,0,.036.082.036.111,0,.193-.027.234-.172.234-.406,0-.613-2.068-.753-2.314l-.018.006c-.095.24-.244.422-.356.645,0,.181,0,.357,0,.533l0,.7c0,.141,0,.276,0,.416Z" transform="translate(-48.099 -146.933)" fill="#ffbe1a"/>
          <path id="패스_377" data-name="패스 377" d="M79.216,174.19c-.058.006-.117.012-.176.012a.328.328,0,0,1-.108-.017,8.653,8.653,0,0,0,.018-1.078c0-.721.05-1.148,0-1.915,0-.211-.014-.457-.167-.457-.045-.029-.036-.164-.036-.252,0-.129.068-.141.136-.141.288,0,.311.4.311.662v.146c0,.662.027,1.254.027,1.839l0,.7c0,.141.018.34.018.48Z" transform="translate(-67.903 -146.895)" fill="#ffbe1a"/>
          <path id="패스_378" data-name="패스 378" d="M84.9,174.091c.027-.123.032-.937.032-1.54v-.6c0-.3.013-.609.013-.908,0-.076,0-.281-.049-.322-.036,0-.09.006-.09-.047,0-.088-.031-.187-.031-.269,0-.052.09-.047.122-.047.113,0,.352-.024.37.105a2.632,2.632,0,0,0,.095.416c.2.668.352,1.376.568,2.074.027.082.127.545.162.6l.01-.029c0-.182-.01-.644-.01-.826s.046-1.7-.009-2.279c-.009-.094.289-.117.284-.024,0,.017,0,.029,0,.047-.013.158,0,.92,0,1.037v.258c0,.691.014,1.341.014,1.991,0,.035-.009.357-.014.375-.023.065-.121.07-.167.07a.476.476,0,0,1-.235-.065c-.221-.89-.456-1.769-.753-2.636-.017.31-.013.662-.013.984,0,.281-.023.568-.023.855,0,.246.027.5.027.738l-.009.041a.278.278,0,0,1-.294,0" transform="translate(-73.11 -146.89)" fill="#ffbe1a"/>
          <path id="패스_379" data-name="패스 379" d="M108.446,170.572c-.167,0-.744-.018-.816-.018,0,.65-.036,1.9-.036,2.548,0,.275.018.556.018.832,0,.088-.036.105-.1.105-.175,0-.2-.076-.2-.281,0-.41,0-.814,0-1.224v-.884c0-.351.023-.644.023-1v-.082a.63.63,0,0,0-.149-.012c-.118,0-.113.023-.225.023a.106.106,0,0,1-.073-.017,1.94,1.94,0,0,1-.027-.281c.023-.07.194-.07.275-.07.4,0,1.281.024,1.664.024.081,0,.157,0,.207.006.221.012.18.428.018.386a2.543,2.543,0,0,0-.578-.059m.081,1.5a.407.407,0,0,0,.085.006c.253,0,.505-.029.758-.029.1,0,.058.006.117.006,0-.474-.058-1.2-.058-1.675,0-.17.117-.123.2-.123.112,0,.18-.041.18.147,0,.673-.068,1.394-.068,2.067,0,.568.077,1.294.6,1.294.212,0,.321-.228.42-.433l.017-.041.036-.024c.063,0,.226.065.244.146-.072.445-.343.756-.69.756-.537,0-.884-.515-.884-1.213,0-.141-.009-.4-.009-.539-.1,0-.041.006-.135.006h-.013c-.235,0-.465-.006-.7-.006-.036,0-.095-.006-.122.03a11.861,11.861,0,0,0-.009,1.259c0,.082,0,.3-.054.357a.914.914,0,0,1-.221.023c-.04,0-.059-.018-.059-.076,0-.3.036-.592.036-.89,0-.685.009-.785.009-1.47v-.018c0-.141,0-.351-.1-.427-.095,0-.1-.023-.1-.146,0-.164.009-.24.154-.24.329,0,.37.41.37.744Zm0,0v-.006l0,.006Zm2.8-1.763a1.092,1.092,0,0,1,.05.246c-.027.111-.32.105-.388.105-.148,0-.3-.017-.446-.017l-.019.017a2.133,2.133,0,0,0-.013.293c0,.181.01.357.013.539a1.274,1.274,0,0,0,.537.029l.022.012a.39.39,0,0,1,.023.164c0,.14-.077.175-.172.175s-.176-.029-.261-.029c-.041,0-.136,0-.149.064a3.765,3.765,0,0,0-.026.68c.207.053.77-.012.888.094,0,.053.009.111.009.164,0,.105-.027.134-.108.134a10.264,10.264,0,0,0-1.037-.006c-.022-.3.009-.544.009-.779,0-.433.01-.844.01-1.277a.678.678,0,0,0-.041-.287c-.127-.059-.131-.017-.131-.217,0-.047-.013-.1.031-.117a1.069,1.069,0,0,1,.3-.029l.784.006a.5.5,0,0,1,.09.011Z" transform="translate(-92.15 -146.786)" fill="#ffbe1a"/>
          <path id="패스_380" data-name="패스 380" d="M150.379,172.634c.1,0,.126.041.126.111,0,.047-.009.105-.009.17a.548.548,0,0,0,.569.627c.283,0,.5-.293.5-.662,0-1.083-1.141-.919-1.33-1.7a1.349,1.349,0,0,1-.031-.316c0-.469.2-.99.613-.99a1.749,1.749,0,0,1,.351.029c.311.071.5.48.5.867,0,.193-.148.146-.243.146l-.022-.012a.1.1,0,0,1,0-.041c0-.035,0-.07,0-.1,0-.381-.163-.568-.523-.568-.316,0-.415.345-.415.626,0,.814.911.615,1.249,1.488a1.453,1.453,0,0,1,.1.515,2.282,2.282,0,0,1-.05.457.722.722,0,0,1-.685.562.91.91,0,0,1-.231-.023.829.829,0,0,1-.609-.808c-.009-.1-.036-.205-.036-.3a.073.073,0,0,1,.027-.065,1.329,1.329,0,0,1,.149-.017" transform="translate(-129.528 -146.492)" fill="#ffbe1a"/>
          <path id="패스_381" data-name="패스 381" d="M165.3,170.245c0,.492.036.978.036,1.47s.022,2.009-.726,2.009c-.654,0-.816-.551-.816-1.295,0-.181,0-.351,0-.521,0-.193.009-.392.009-.586,0-.339-.022-.685-.022-1.025,0-.164-.085-.129-.171-.2a1.092,1.092,0,0,1-.032-.246v-.053c.022-.041.041-.047.063-.047h.153c.23,0,.28.363.28.6,0,.4-.017.8-.017,1.195,0,.287.017.574.017.861,0,.451.036.9.469.9.523,0,.483-1.13.483-1.7,0-.322-.014-.638-.014-.955v-.264c0-.158-.023-.31-.023-.457,0-.129.338-.211.338-.006,0,.111-.022.222-.022.334" transform="translate(-141.055 -146.382)" fill="#ffbe1a"/>
          <path id="패스_382" data-name="패스 382" d="M180.444,171.339c0,.727.023,1.447.023,2.173,0,.112,0,.229,0,.346,0,.158.013.375-.1.375a1.784,1.784,0,0,1-.249-.023l-.031-.012c-.054-.205-.117-.393-.18-.586-.131-.4-.248-.832-.352-1.242-.041-.158-.2-.919-.243-1l-.01.017c-.009.4-.031.791-.031,1.189,0,.516.027,1.031.027,1.546a.21.21,0,0,1-.01.076l-.022.023c-.054,0-.117.017-.171.017h-.014l-.023-.023c-.009-.029-.018-.58-.018-.65,0-.2-.013-.4-.013-.6,0-.234.022-.492.022-.72,0-.123-.009-.252-.009-.369,0-.27.031-.539.031-.808,0-.14-.013-.257-.148-.293a.734.734,0,0,1-.022-.175c0-.158,0-.188.131-.188.112,0,.311.006.342.076.054.287.234.814.324,1.125.1.345.194.755.262,1.113a7.729,7.729,0,0,0,.225.867l.009.006,0-.029c0-.469-.018-.931-.018-1.406,0-.275-.009-.4-.009-.8,0-.158.009-.814.018-.937,0,0,.266-.053.266.052-.013.135-.018.826-.018.855" transform="translate(-154.281 -146.961)" fill="#ffbe1a"/>
          <path id="패스_383" data-name="패스 383" d="M194.977,171.029a.332.332,0,0,0-.012.094c0,.143.111.186.212.269a.177.177,0,0,1,.058.123.091.091,0,0,1-.093.1h0c-.051,0-.078-.033-.078-.138,0-.034-.022-.038-.046-.038h-.026c-.019,0-.024.014-.024.035,0,.148.072.247.191.247a.183.183,0,0,0,.171-.2c0-.248-.275-.255-.275-.389a.13.13,0,0,1,0-.039.079.079,0,0,1,.073-.066c.067,0,.08.045.1.114a.024.024,0,0,0,.026.018c.013,0,.028-.006.042-.008s.01-.04.014-.058a.2.2,0,0,0-.172-.174.148.148,0,0,0-.163.113" transform="translate(-168.128 -147.39)" fill="#ffbe1a"/>
        </g>
      </g>
      <g id="그룹_418" data-name="그룹 418" transform="translate(26.836 23.526)">
        <g id="그룹_417" data-name="그룹 417" clip-path="url(#clip-path-10)">
          <rect id="사각형_214" data-name="사각형 214" width="0.733" height="0.876" transform="translate(-0.361 0.224) rotate(-31.791)" fill="#ffbe1a"/>
        </g>
      </g>
      <g id="그룹_420" data-name="그룹 420">
        <g id="그룹_419" data-name="그룹 419" clip-path="url(#clip-path)">
          <path id="패스_385" data-name="패스 385" d="M198.641,171c-.052,0-.146.473-.177.609a3.47,3.47,0,0,0-.135-.6.613.613,0,0,0-.11-.011c-.036,0-.039.037-.039.08v.024c.038.016.038.054.038.081v.448c0,.036-.007.07-.007.107,0,.016,0,.036.011.046h.042c.019,0,.038,0,.038-.02,0-.082,0-.167-.006-.253s-.008-.183-.008-.271a.83.83,0,0,1,.006-.1c.02.1.055.288.085.434a1.459,1.459,0,0,0,.048.2l.007,0a.285.285,0,0,0,.032,0,.036.036,0,0,0,.035-.017s.009-.032.021-.078c.034-.135.1-.4.121-.459l0,.02c0,.107-.006.214-.006.322,0,.022,0,.047,0,.069,0,.08.009.154.087.154.035,0,.04-.009.04-.055V171.7l0-.009c-.038,0-.042-.054-.042-.091,0-.108.01-.217.01-.327v-.206c0-.062-.023-.071-.065-.071Z" transform="translate(-170.901 -147.463)" fill="#ffbe1a"/>
        </g>
      </g>
      <g id="그룹_422" data-name="그룹 422" transform="translate(27.278 23.537)">
        <g id="그룹_421" data-name="그룹 421" clip-path="url(#clip-path-12)">
          <rect id="사각형_216" data-name="사각형 216" width="0.914" height="0.981" transform="matrix(0.85, -0.527, 0.527, 0.85, -0.355, 0.22)" fill="#ffbe1a"/>
        </g>
      </g>
    </g>
  </g>
</svg>
