<svg xmlns="http://www.w3.org/2000/svg" width="56" height="56" viewBox="0 0 56 56">
  <g id="그룹_342" data-name="그룹 342" transform="translate(55.592) rotate(90)">
    <g id="패스_3" data-name="패스 3" transform="translate(0 -0.408)" fill="#fff">
      <path d="M 28 55.5 C 24.28730010986328 55.5 20.6859302520752 54.77296829223633 17.2959098815918 53.33911895751953 C 14.02128982543945 51.95407104492188 11.08028030395508 49.97114944458008 8.554559707641602 47.44543838500977 C 6.028850078582764 44.91971969604492 4.045929908752441 41.97871017456055 2.660880088806152 38.7040901184082 C 1.227030038833618 35.31407165527344 0.5 31.71269989013672 0.5 28 C 0.5 24.28730010986328 1.227030038833618 20.6859302520752 2.660880088806152 17.2959098815918 C 4.045929908752441 14.02128982543945 6.028850078582764 11.08028030395508 8.554559707641602 8.554559707641602 C 11.08028030395508 6.028850078582764 14.02128982543945 4.045929908752441 17.2959098815918 2.660880088806152 C 20.6859302520752 1.227030038833618 24.28730010986328 0.5 28 0.5 C 31.71269989013672 0.5 35.31407165527344 1.227030038833618 38.7040901184082 2.660880088806152 C 41.97871017456055 4.045929908752441 44.91971969604492 6.028850078582764 47.44543838500977 8.554559707641602 C 49.97114944458008 11.08028030395508 51.95407104492188 14.02128982543945 53.33911895751953 17.2959098815918 C 54.77296829223633 20.6859302520752 55.5 24.28730010986328 55.5 28 C 55.5 31.71269989013672 54.77296829223633 35.31407165527344 53.33911895751953 38.7040901184082 C 51.95407104492188 41.97871017456055 49.97114944458008 44.91971969604492 47.44543838500977 47.44543838500977 C 44.91971969604492 49.97114944458008 41.97871017456055 51.95407104492188 38.7040901184082 53.33911895751953 C 35.31407165527344 54.77296829223633 31.71269989013672 55.5 28 55.5 Z" stroke="none"/>
      <path d="M 28 1 C 24.35457992553711 1 20.81874084472656 1.713741302490234 17.49068832397461 3.121379852294922 C 14.27566909790039 4.481220245361328 11.38806915283203 6.42816162109375 8.908119201660156 8.908119201660156 C 6.42816162109375 11.38806915283203 4.481220245361328 14.27566909790039 3.121379852294922 17.49068832397461 C 1.713741302490234 20.81874084472656 1 24.35457992553711 1 28 C 1 31.64542007446289 1.713741302490234 35.18125915527344 3.121379852294922 38.50930786132812 C 4.481220245361328 41.72433090209961 6.42816162109375 44.61193084716797 8.908119201660156 47.09188079833984 C 11.38806915283203 49.57183837890625 14.27566909790039 51.51877975463867 17.49068832397461 52.87862014770508 C 20.81874084472656 54.28625869750977 24.35457992553711 55 28 55 C 31.64542007446289 55 35.18125915527344 54.28625869750977 38.50930786132812 52.87862014770508 C 41.72433090209961 51.51877975463867 44.61193084716797 49.57183837890625 47.09188079833984 47.09188079833984 C 49.57183837890625 44.61193084716797 51.51877975463867 41.72433090209961 52.87862014770508 38.50930786132812 C 54.28625869750977 35.18125915527344 55 31.64542007446289 55 28 C 55 24.35457992553711 54.28625869750977 20.81874084472656 52.87862014770508 17.49068832397461 C 51.51877975463867 14.27566909790039 49.57183837890625 11.38806915283203 47.09188079833984 8.908119201660156 C 44.61193084716797 6.42816162109375 41.72433090209961 4.481220245361328 38.50930786132812 3.121379852294922 C 35.18125915527344 1.713741302490234 31.64542007446289 1 28 1 M 28 0 C 43.46397018432617 0 56 12.53602981567383 56 28 C 56 43.46397018432617 43.46397018432617 56 28 56 C 12.53602981567383 56 0 43.46397018432617 0 28 C 0 12.53602981567383 12.53602981567383 0 28 0 Z" stroke="none" fill="#e3e3e3"/>
    </g>
    <path id="패스_1" data-name="패스 1" d="M-376.681,2209.49l-9.934,9.934,9.934,9.933" transform="translate(407.574 -2191.356)" fill="none" stroke="#b7b7b7" stroke-linecap="round" stroke-width="1"/>
  </g>
</svg>
