<svg xmlns="http://www.w3.org/2000/svg" xmlns:xlink="http://www.w3.org/1999/xlink" width="136" height="80" viewBox="0 0 136 80">
  <defs>
    <clipPath id="clip-path">
      <rect id="사각형_166" data-name="사각형 166" width="127.121" height="69.545" fill="none"/>
    </clipPath>
    <clipPath id="clip-path-3">
      <rect id="사각형_163" data-name="사각형 163" width="55.708" height="11.295" fill="none"/>
    </clipPath>
  </defs>
  <g id="logo" transform="translate(-336 -15)">
    <rect id="사각형_171" data-name="사각형 171" width="136" height="80" transform="translate(336 15)" fill="none"/>
    <g id="그룹_351" data-name="그룹 351" transform="translate(340.439 20.228)">
      <g id="그룹_350" data-name="그룹 350" clip-path="url(#clip-path)">
        <g id="그룹_349" data-name="그룹 349">
          <g id="그룹_348" data-name="그룹 348" clip-path="url(#clip-path)">
            <path id="패스_187" data-name="패스 187" d="M329.018,199.261c-.463,2.024-.608,4.748.568,4.642,1.085-.092,1.985-2.249,2.447-4.292s.317-3.968-.675-3.922c-1.019.053-1.878,1.534-2.341,3.571m-.9,5.43c-1.522-.853-1.826-3.472-.821-6.031,1.3-3.313,4.523-4.7,5.872-3.934,2.083,1.19,1.4,4.4-.053,6.976-1.323,2.347-3.485,3.842-5,2.989" transform="translate(-253.304 -150.811)" fill="#fff"/>
            <path id="패스_188" data-name="패스 188" d="M200.23,204.026l2.01-.3s1.125-3.015,1.349-3.928,1.977-4.392,3.531-4.312a1.022,1.022,0,0,1,1.118.728l.662-2.024a.854.854,0,0,0-.907-.443c-1.243.232-1.931.867-3.558,3.28l1.025-3.472a18.782,18.782,0,0,1-3.472.549l-.132.45a8.328,8.328,0,0,0,1.243,0c.364-.06.093.284-.013.654s-2.857,8.822-2.857,8.822" transform="translate(-155.239 -150.061)" fill="#fff"/>
            <path id="패스_189" data-name="패스 189" d="M236.606,186.523c-.906,3-2.288,4.153-3.082,4.153-.926,0-.278-2.083.51-4.206s1.977-4.008,2.89-4.225c.291-.073.979.007.78.681Zm2.381,3.445c-.9.926-1.759,1.144-1.27-.516l3.38-11.619a19.616,19.616,0,0,1-3.479.549l-.132.45s.886.019,1.25,0c.311-.02.092.284-.013.654-.079.239-.331,1.105-.642,2.157-.006,0-.006-.007-.013-.007-2.03-.377-3.974.667-5.6,3.776-1.388,2.646-1.587,5.423-.324,6.4,1.011.787,3.009-1.006,3.961-2.718-.04.132-.9,4.424,1.746,2.486a9.715,9.715,0,0,0,1.336-1.224Z" transform="translate(-179.328 -137.875)" fill="#fff"/>
            <path id="패스_190" data-name="패스 190" d="M164.77,203.02c-.925,0-.264-2.09.529-4.206s1.951-4.008,2.87-4.226c.291-.073.747-.02.88.3-.245.814-.483,1.654-.7,2.355l-.02.013c-.126.4-.3.979-.483,1.614-.906,2.989-2.282,4.152-3.075,4.152m5.238-.3c-.847.555-1.475.516-1.051-.92l2.077-7.405a17,17,0,0,0-1.727-.41c-2.03-.371-3.981.661-5.6,3.776-1.383,2.646-1.581,5.423-.318,6.4,1.011.794,3.008-1,3.961-2.724-.04.139-.933,4.377,1.713,2.433.364-.264.761-.542,1.131-.819Z" transform="translate(-126.022 -150.338)" fill="#fff"/>
            <path id="패스_191" data-name="패스 191" d="M125.371,190.549c-2.85.138-5.073,5.555-5.846,7.261l.417-6.421a5.776,5.776,0,0,1-1.97.482L114.85,199s.277-4.232.377-6.447c.092-1.892-2.255-1.614-3.644-.456l.052.357c.893-.383,1.607-.714,1.607.635,0,1.733-.456,8.65-.456,8.65l1.878-.3,3.161-7.109.007-.007-.43,7.473,1.871-.3.007.007s2.738-9.708,6.242-10.654Z" transform="translate(-86.511 -147.734)" fill="#fff"/>
            <path id="패스_192" data-name="패스 192" d="M78.029,198.686c-.463,2.037-.608,4.755.575,4.656,1.078-.093,1.978-2.262,2.447-4.3s.311-3.968-.675-3.922c-1.025.053-1.878,1.528-2.347,3.564m-.9,5.436c-1.522-.86-1.826-3.472-.821-6.031,1.3-3.313,4.523-4.708,5.873-3.935,2.089,1.184,1.4,4.4-.047,6.977-1.316,2.354-3.486,3.849-5.006,2.989" transform="translate(-58.711 -150.369)" fill="#fff"/>
            <path id="패스_193" data-name="패스 193" d="M7.64,183.343a9.546,9.546,0,0,0-7.221,6.17c-2.341,6.48,5.793,5.091,8.015-2.116l1.059-3.439,4.285.007L12.4,188.7c-.317.959-.582,4.107,2.076,2.169a12.262,12.262,0,0,0,1.627-1.521l-.324-.417c-1,1.071-1.944,1.673-1.415-.132l3.459-11.6-2.084.436-1.779,5.734H9.677l1.831-6.184-2.122.417c-.456,1.475-1.1,3.585-1.746,5.74m-5.859,9.549c-2.235-.02-.536-5.522,3.108-7.6a6.9,6.9,0,0,1,2.579-1.23c-.073.231-.939,3.029-.939,3.029-2.037,6.236-4.748,5.8-4.748,5.8" transform="translate(0 -137.373)" fill="#fff"/>
            <path id="패스_194" data-name="패스 194" d="M410.218,203.069l-.377.265s-1.336.938-.867-.6l1.951-6.4s.794-1.93-.476-1.9S407.679,195.51,406,198l1.092-3.571a18.619,18.619,0,0,1-3.485.556l-.146.463a7.612,7.612,0,0,0,1.257,0c.357-.059.079.3-.026.675s-2.6,8.392-2.6,8.392l2.017-.3,1.316-4.318s2.268-4.206,3.366-3.559c0,0,.29.04-.2,1.456-.489,1.435-1.6,5.218-1.6,5.218s-.713,2.037.768,1.911a5.533,5.533,0,0,0,2.685-1.389Z" transform="translate(-311.748 -150.744)" fill="#fff"/>
            <path id="패스_195" data-name="패스 195" d="M516.555,203.069l-.384.265s-1.326.938-.863-.6,1.961-6.4,1.961-6.4.793-1.93-.49-1.9-2.767,1.078-4.434,3.571l1.084-3.571a18.479,18.479,0,0,1-3.485.556l-.139.463a7.445,7.445,0,0,0,1.243,0c.37-.059.093.3-.026.675s-2.593,8.392-2.593,8.392l2.024-.3,1.31-4.318s2.268-4.206,3.359-3.559c0,0,.294.04-.2,1.456-.483,1.435-1.587,5.218-1.587,5.218s-.715,2.037.754,1.911a5.46,5.46,0,0,0,2.688-1.389Z" transform="translate(-394.189 -150.744)" fill="#fff"/>
            <path id="패스_196" data-name="패스 196" d="M449.1,197.637l.7-2.328s-.384-1.567-2.592-1.164c-2.989.543-2.857,2.745-2.857,2.745s-.211.952,1.508,3.531c1.349,2.031.125,3.221.125,3.221a.985.985,0,0,1-1.5-.424,2.455,2.455,0,0,1-.344-1.97l-.252-.172-1.118,1.52a2.56,2.56,0,0,0,3.274,1.806c2.738-.589,2.87-2.308,2.01-4.266-1.117-2.553-2.844-4.06-1.594-5.039,1.2-.919,2.638.728,2.321,2.368Z" transform="translate(-343.282 -150.47)" fill="#fff"/>
            <path id="패스_197" data-name="패스 197" d="M476.36,198.723c-.463,2.037-.608,4.755.569,4.649,1.084-.093,1.983-2.255,2.447-4.292s.318-3.975-.674-3.922c-1.019.053-1.871,1.528-2.341,3.564m-.9,5.43c-1.521-.847-1.818-3.465-.82-6.025,1.3-3.314,4.524-4.7,5.873-3.935,2.09,1.19,1.4,4.4-.053,6.977-1.316,2.354-3.478,3.842-5,2.982" transform="translate(-367.541 -150.399)" fill="#fff"/>
            <path id="패스_198" data-name="패스 198" d="M368.7,190.384a3.272,3.272,0,0,1-.344.225c-.536.311-1.375.516-1.059-.562.436-1.495,1.978-6.48,1.978-6.48s.754-1.878-.516-1.852-2.75,1.045-4.371,3.465l2.07-7.168a19.252,19.252,0,0,1-3.479.542l-.132.45a8.266,8.266,0,0,0,1.243,0c.364-.059.1.284-.013.662-.04.125-3.623,12.115-3.623,12.115l2-.3,1.382-4.464s2.2-4.087,3.293-3.452c0,0,.291.026-.165,1.415s-1.641,5.33-1.641,5.33-.575,1.984.794,1.852a6.03,6.03,0,0,0,2.77-1.323Z" transform="translate(-279.462 -138.013)" fill="#fff"/>
            <path id="패스_199" data-name="패스 199" d="M275.35,185.756a7.042,7.042,0,0,1,4.788-2.685,32.846,32.846,0,0,1-2.261,5.608s-2.222,3.862-4.021,2.711c0,0-2-1.534,1.495-5.634m2.553-10.343c-2.9,4.755.674,6.877,2.215,6.011-2-1.276-2.07-4.312-1.011-5.932,1.269-1.911,2.466-2.329,3.306-2.421.906-.105.747.185.747.185l-2.731,8.862a9.935,9.935,0,0,0-7.618,5.859c-2.566,6.481,5.952,5.6,8.544-1.99l1.184-3.339a10.961,10.961,0,0,1,3.5.145,5.533,5.533,0,0,0-3.306-.84l3.042-9.827c-3.465-.39-6.309.721-7.869,3.287" transform="translate(-211.142 -133.392)" fill="#fff"/>
            <path id="패스_200" data-name="패스 200" d="M24.348,251.035H77.822l.516-1.124H24.864Z" transform="translate(-18.878 -193.758)" fill="#fff"/>
            <path id="패스_201" data-name="패스 201" d="M311.007,251.035h51.546l.5-1.124H311.517Z" transform="translate(-241.125 -193.758)" fill="#fff"/>
            <g id="그룹_347" data-name="그룹 347" transform="translate(34.833 22.989)" opacity="0.3">
              <g id="그룹_346" data-name="그룹 346">
                <g id="그룹_345" data-name="그룹 345" clip-path="url(#clip-path-3)">
                  <path id="패스_202" data-name="패스 202" d="M155.024,113.569h14.323l13.531-8.135,13.821,8.174h14.034a40.043,40.043,0,0,0-55.708-.04" transform="translate(-155.024 -102.314)" fill="#fff"/>
                </g>
              </g>
            </g>
            <path id="패스_203" data-name="패스 203" d="M164.875,143.106l-.2.159,3.955,1.931h4.4Z" transform="translate(-127.675 -110.951)" fill="#fff"/>
            <path id="패스_204" data-name="패스 204" d="M190.614,135.112l.952-.569-8.875-4.443c-.079.053-.158.1-.238.146l5.9,4.866Z" transform="translate(-141.457 -100.867)" fill="#fff"/>
            <path id="패스_205" data-name="패스 205" d="M208.711,124.94l-6.8-5.469c-.093.047-.18.086-.265.132l5.112,6.514Z" transform="translate(-156.334 -92.626)" fill="#fff"/>
            <path id="패스_206" data-name="패스 206" d="M226.4,117.354l-4.88-5.74c-.093.026-.185.053-.278.086l3.386,6.712Z" transform="translate(-171.531 -86.535)" fill="#fff"/>
            <path id="패스_207" data-name="패스 207" d="M244.083,111.661l-3.042-5.4c-.093.026-.185.046-.284.066l1.713,6.3Z" transform="translate(-186.659 -82.382)" fill="#fff"/>
            <path id="패스_208" data-name="패스 208" d="M262.009,107.516l-1.587-4.318c-.119.013-.226.026-.331.039l.384,5.2Z" transform="translate(-201.65 -80.01)" fill="#fff"/>
            <path id="패스_209" data-name="패스 209" d="M277.024,105.438l.509.3-.39-3.42c-.039,0-.08-.005-.119-.005s-.119.005-.172.005l-.4,3.459Z" transform="translate(-214.337 -79.327)" fill="#fff"/>
            <path id="패스_210" data-name="패스 210" d="M290.667,108.352l.384-5.138c-.118-.013-.225-.04-.344-.047l-1.568,4.278Z" transform="translate(-224.171 -79.987)" fill="#fff"/>
            <path id="패스_211" data-name="패스 211" d="M303.9,112.54l1.686-6.223c-.092-.02-.185-.046-.277-.06l-3.017,5.336Z" transform="translate(-234.372 -82.382)" fill="#fff"/>
            <path id="패스_212" data-name="패스 212" d="M315.755,118.516l3.465-6.58c-.08-.033-.172-.06-.252-.086l-4.96,5.635Z" transform="translate(-243.453 -86.718)" fill="#fff"/>
            <path id="패스_213" data-name="패스 213" d="M326.971,126.015,332,119.607l-.264-.132-6.718,5.389Z" transform="translate(-251.99 -92.63)" fill="#fff"/>
            <path id="패스_214" data-name="패스 214" d="M336.572,135.468h1.9l6.083-4.8-.258-.159-8.862,4.285Z" transform="translate(-260.064 -101.184)" fill="#fff"/>
            <path id="패스_215" data-name="패스 215" d="M360.019,145.416,364,143.491c-.06-.053-.118-.1-.185-.152l-8.306,2.077Z" transform="translate(-275.628 -111.131)" fill="#fff"/>
            <path id="패스_216" data-name="패스 216" d="M284.757,156.055v1.257h3.213a3.6,3.6,0,0,0-.238-1.257Z" transform="translate(-220.774 -120.99)" fill="#fff"/>
            <path id="패스_217" data-name="패스 217" d="M269.662,156.055h-2.976a3.593,3.593,0,0,0-.239,1.257h3.214Z" transform="translate(-206.578 -120.99)" fill="#fff"/>
            <path id="패스_218" data-name="패스 218" d="M272.173,147v-1.448A3.633,3.633,0,0,0,269.686,147Z" transform="translate(-209.089 -112.846)" fill="#fff"/>
            <path id="패스_219" data-name="패스 219" d="M284.757,146.976h2.493a3.7,3.7,0,0,0-2.493-1.455Z" transform="translate(-220.774 -112.823)" fill="#fff"/>
            <path id="패스_220" data-name="패스 220" d="M258.273,144.477a4.465,4.465,0,0,1,4.451-4.471,4.372,4.372,0,0,1,2.413.728,4.988,4.988,0,0,0-8.253,3.743Z" transform="translate(-199.164 -108.169)" fill="#fff"/>
            <path id="패스_221" data-name="패스 221" d="M161.779,98.369l12.4,7.367,21.572.007a43.627,43.627,0,0,0-67.948-.007h21.657Zm13.272,6.4-13.279-7.9-13.186,7.9-18.146.026a42.186,42.186,0,0,1,62.658-.013Z" transform="translate(-99.086 -69.375)" fill="#fff"/>
            <path id="패스_222" data-name="패스 222" d="M554.542,186.406c.2,0,.384-.014.437-.252.04-.191-.132-.225-.291-.225h-.331l-.106.477Zm-.476.866h-.238l.331-1.548h.6c.383,0,.542.139.476.443a.531.531,0,0,1-.5.423l.291.681h-.265l-.265-.668h-.278Zm.212.344a1.42,1.42,0,0,0,1.349-1.118.857.857,0,0,0-.86-1.117A1.43,1.43,0,0,0,553.4,186.5a.858.858,0,0,0,.873,1.118m-1.151-1.118a1.767,1.767,0,0,1,1.679-1.336,1.052,1.052,0,0,1,1.1,1.336,1.773,1.773,0,0,1-1.679,1.343,1.057,1.057,0,0,1-1.1-1.343" transform="translate(-428.816 -143.557)" fill="#fff"/>
            <path id="패스_223" data-name="패스 223" d="M29.789,27.42a4.335,4.335,0,0,0,1.283-1.984.954.954,0,0,0-.225-1.006l-1.038-1.19a.71.71,0,0,0-1-.059l-1.23,1.078a.615.615,0,0,0-.053.866.6.6,0,0,0,.866.046l.721-.628.615.694a2.238,2.238,0,0,1-.761,1.178,1.936,1.936,0,0,1-2.824-.252l-.007-.014a1.937,1.937,0,0,1,.067-2.737,2.217,2.217,0,0,1,1.356-.6.711.711,0,0,0,.482-1.171.669.669,0,0,0-.595-.231,3.551,3.551,0,0,0-2.077.985,3.311,3.311,0,0,0-.344,4.748l.013.014a3.232,3.232,0,0,0,4.748.264m6.6-5.349a3.342,3.342,0,0,0,.846-4.728l-.013-.014a3.441,3.441,0,0,0-5.576,4.028l.014.02a3.311,3.311,0,0,0,4.728.695m-.754-1.079a1.961,1.961,0,0,1-2.777-.5l-.014-.02a1.941,1.941,0,0,1,.4-2.771,1.983,1.983,0,0,1,2.791.509v.02a1.922,1.922,0,0,1-.4,2.764m8.478-4.959a.71.71,0,1,0,1.256-.661l-.912-1.72,2.315-1.23.912,1.712a.709.709,0,0,0,.965.3.717.717,0,0,0,.291-.965L46.52,8.91a.711.711,0,1,0-1.256.668l.892,1.68-2.321,1.236-.893-1.686a.713.713,0,0,0-1.257.674Zm6.917-3.578a.648.648,0,0,0,.854.377.708.708,0,0,0,.443-.655l.033-1.157,2.652-1.046.78.788a.717.717,0,0,0,.813.2.68.68,0,0,0,.377-.886.689.689,0,0,0-.172-.237L52.836,5.928a.881.881,0,0,0-.973-.218l-.08.033a.883.883,0,0,0-.568.827l-.225,5.575a.836.836,0,0,0,.039.311m1.363-2.8.046-2.314L54.059,9Zm6.764-.37a.7.7,0,0,0,.879.489.7.7,0,0,0,.49-.873l-.344-1.236,1.038-.3c1.4-.39,2.309-1.455,1.9-2.9V4.453A2.214,2.214,0,0,0,60.13,2.972L58.264,3.5a.7.7,0,0,0-.489.872Zm.681-2.844-.542-1.9,1.058-.3c.688-.192,1.21.02,1.382.628l.007.02a1,1,0,0,1-.82,1.251Zm6.574.9a.708.708,0,0,0,.82.582.718.718,0,0,0,.582-.827L67.6,5.835l1.065-.185c1.428-.252,2.446-1.2,2.195-2.685v-.02A2.23,2.23,0,0,0,68.025,1.16l-1.9.325a.717.717,0,0,0-.575.826Zm.966-2.758-.331-1.951,1.085-.185c.7-.119,1.19.139,1.309.767v.02a1.007,1.007,0,0,1-.953,1.157ZM75.531,6.06a.7.7,0,0,0,.754.661.711.711,0,0,0,.668-.753L76.834,4.1l1.9-2.95a.809.809,0,0,0,.152-.5A.646.646,0,0,0,78.157,0,.811.811,0,0,0,77.5.465L76.047,2.846,74.335.684a.814.814,0,0,0-.727-.39.7.7,0,0,0-.668.727.932.932,0,0,0,.206.5l2.267,2.7Zm5.019-.317v.02a.8.8,0,0,0,1.6.013v-.02a.8.8,0,0,0-1.6-.013M91.5,7.383a4.285,4.285,0,0,0,2.334-.291.961.961,0,0,0,.629-.819L94.7,4.711a.707.707,0,0,0-.595-.806L92.5,3.66a.613.613,0,1,0-.191,1.21l.952.145-.132.913a2.244,2.244,0,0,1-1.388.184,1.938,1.938,0,0,1-1.627-2.327v-.02A1.947,1.947,0,0,1,92.256,2.06a2.277,2.277,0,0,1,1.335.655A.717.717,0,0,0,94,2.926a.692.692,0,0,0,.794-.6.712.712,0,0,0-.2-.608A3.587,3.587,0,0,0,92.507.77a3.314,3.314,0,0,0-3.862,2.79v.014A3.23,3.23,0,0,0,91.5,7.383m8.293,1.772a3.352,3.352,0,0,0,4.232-2.288V6.854A3.441,3.441,0,0,0,97.4,5v.013a3.314,3.314,0,0,0,2.394,4.14m.377-1.256a1.982,1.982,0,0,1-1.336-2.5l.007-.013a1.936,1.936,0,0,1,2.42-1.416A1.984,1.984,0,0,1,102.6,6.464l-.013.02A1.936,1.936,0,0,1,100.172,7.9m9.119,3.7a.71.71,0,0,0,.344.946.7.7,0,0,0,.946-.344l.832-1.759,2.374,1.124-.834,1.759a.716.716,0,0,0,1.3.608l2.195-4.668a.71.71,0,1,0-1.282-.608l-.821,1.725-2.367-1.117.807-1.726a.71.71,0,1,0-1.283-.608ZM119.1,17.54a3.342,3.342,0,0,0,4.683-1.051l.013-.02a3.44,3.44,0,0,0-5.872-3.578l-.014.02a3.311,3.311,0,0,0,1.19,4.629m.7-1.112a1.967,1.967,0,0,1-.608-2.764l.007-.013a1.933,1.933,0,0,1,2.705-.7,1.968,1.968,0,0,1,.608,2.764l-.007.014a1.933,1.933,0,0,1-2.7.7m5.33,5.079a2.1,2.1,0,0,0,3.227-.516l2.13-2.87a.709.709,0,1,0-1.137-.846l-2.09,2.817c-.45.608-.912.675-1.356.345a1.355,1.355,0,0,1-.5-.781.694.694,0,0,0-.258-.371.675.675,0,0,0-.945.146.736.736,0,0,0-.119.608,2.8,2.8,0,0,0,1.045,1.468m6.375,5.066a3.344,3.344,0,0,0,4.795-.3l.013-.014a3.443,3.443,0,0,0-5.244-4.457l-.014.014a3.321,3.321,0,0,0,.45,4.762m.866-.979a1.972,1.972,0,0,1-.165-2.83l.007-.013A1.928,1.928,0,0,1,135,22.481a1.969,1.969,0,0,1,.172,2.823l-.013.013a1.935,1.935,0,0,1-2.784.278m6.368,1.243a1.286,1.286,0,0,0,1.829-.072l.013-.007a1.3,1.3,0,1,0-1.908-1.752l-.013.007a1.283,1.283,0,0,0,.079,1.825m.093-.092a1.138,1.138,0,0,1-.053-1.627v-.013a1.152,1.152,0,1,1,1.7,1.56h-.013a1.154,1.154,0,0,1-1.629.08m.039-.873a.19.19,0,0,0,.007.271.2.2,0,0,0,.271-.013l.172-.179.126.12-.033.462a.189.189,0,0,0,.066.16.185.185,0,0,0,.317-.139l.013-.265a.427.427,0,0,0,.466-.125c.212-.238.146-.5-.105-.741l-.341-.3a.184.184,0,0,0-.271.007Zm.648-.146.226-.238.185.165c.1.086.109.185.043.258s-.162.072-.268-.02Zm-4.013,3.306-.013.013a.8.8,0,0,0,1.164,1.111l.019-.02a.8.8,0,0,0-1.17-1.1" transform="translate(-18.75 0)" fill="#fff"/>
            <rect id="사각형_164" data-name="사각형 164" width="0.714" height="7.525" transform="translate(14.108 59.89)" fill="#fff"/>
            <path id="패스_224" data-name="패스 224" d="M84.129,277.933v2.909h-.622v-5.409h.622v.741a2.448,2.448,0,0,1,1.746-.893,1.847,1.847,0,0,1,1.653.773,2.2,2.2,0,0,1,.265,1.244v3.544H87.17v-3.531c0-.966-.463-1.455-1.4-1.455a1.541,1.541,0,0,0-.966.317,1.621,1.621,0,0,0-.542.734,3.22,3.22,0,0,0-.132,1.025" transform="translate(-64.743 -213.427)" fill="#fff"/>
            <path id="패스_225" data-name="패스 225" d="M122.2,277.126h-.635a1.554,1.554,0,0,0-1.614-1.27,1.6,1.6,0,0,0-1.388.715,2.771,2.771,0,0,0-.429,1.573,2.684,2.684,0,0,0,.429,1.561,1.568,1.568,0,0,0,1.388.7,1.625,1.625,0,0,0,1.125-.384,1.81,1.81,0,0,0,.542-1.051h.661a2.164,2.164,0,0,1-2.328,2.016,2.276,2.276,0,0,1-1.891-.833,3.573,3.573,0,0,1,.04-4.008,2.265,2.265,0,0,1,1.851-.866,2.01,2.01,0,0,1,2.249,1.845" transform="translate(-91.075 -213.427)" fill="#fff"/>
            <path id="패스_226" data-name="패스 226" d="M154.411,274.065h-.621V266.54h.621V269.4a2.452,2.452,0,0,1,1.746-.893,1.847,1.847,0,0,1,1.653.773,2.189,2.189,0,0,1,.271,1.243v3.544h-.628v-3.531c0-.966-.463-1.455-1.395-1.455a1.544,1.544,0,0,0-.972.317,1.5,1.5,0,0,0-.529.734,3.013,3.013,0,0,0-.146,1.025Z" transform="translate(-119.234 -206.65)" fill="#fff"/>
            <path id="패스_227" data-name="패스 227" d="M188.361,277.761h3.525a2.076,2.076,0,0,0-.423-1.342,1.579,1.579,0,0,0-1.283-.563,1.6,1.6,0,0,0-1.283.569,2.453,2.453,0,0,0-.536,1.336m4.2.515h-4.2a2.262,2.262,0,0,0,.456,1.5,1.642,1.642,0,0,0,1.363.628,1.773,1.773,0,0,0,1.059-.318,1.571,1.571,0,0,0,.581-.912h.695a2.476,2.476,0,0,1-4.226.992,3.122,3.122,0,0,1-.595-2.018,3.034,3.034,0,0,1,.667-2.023,2.23,2.23,0,0,1,1.819-.847,2.14,2.14,0,0,1,1.759.78,3.414,3.414,0,0,1,.622,2.216" transform="translate(-145.52 -213.427)" fill="#fff"/>
            <path id="패스_228" data-name="패스 228" d="M226.854,278.131a2.689,2.689,0,0,0-.43-1.614,1.8,1.8,0,0,0-2.824.04,2.689,2.689,0,0,0-.422,1.574,2.655,2.655,0,0,0,.475,1.653,1.783,1.783,0,0,0,2.771-.078,2.716,2.716,0,0,0,.43-1.575m-1.839,2.857a2.39,2.39,0,0,1-1.772-.727,2.968,2.968,0,0,1-.734-2.13,3.078,3.078,0,0,1,.621-2.01,2.556,2.556,0,0,1,3.777-.014,3.154,3.154,0,0,1,.608,2.023,3.029,3.029,0,0,1-.688,2.077,2.262,2.262,0,0,1-1.812.78" transform="translate(-172.512 -213.427)" fill="#fff"/>
            <path id="패스_229" data-name="패스 229" d="M259.845,277.933v2.909h-.635v-5.409h.635v.741a2.4,2.4,0,0,1,1.739-.893,1.863,1.863,0,0,1,1.653.773,2.253,2.253,0,0,1,.271,1.244v3.544h-.628v-3.531a1.266,1.266,0,0,0-1.4-1.455,1.571,1.571,0,0,0-.972.317,1.549,1.549,0,0,0-.53.734,3.074,3.074,0,0,0-.132,1.025" transform="translate(-200.967 -213.427)" fill="#fff"/>
            <path id="패스_230" data-name="패스 230" d="M317.284,267.148,315.8,271.1h2.95Zm-2.605,6.917h-.728l2.949-7.525h.808l2.883,7.525h-.728l-.873-2.367h-3.425Z" transform="translate(-243.408 -206.65)" fill="#fff"/>
            <path id="패스_231" data-name="패스 231" d="M357.815,274.065h-.628v-5.409h.628Zm.033-6.6h-.694v-.926h.694Z" transform="translate(-276.903 -206.65)" fill="#fff"/>
            <path id="패스_232" data-name="패스 232" d="M377.274,278.184v2.658h-.635v-5.409h.635v1.006h.013a1.833,1.833,0,0,1,.662-.9,2.063,2.063,0,0,1,1.1-.258v.681q-1.776-.039-1.779,2.222" transform="translate(-292.01 -213.427)" fill="#fff"/>
            <path id="패스_233" data-name="패스 233" d="M402.254,278.151a2.464,2.464,0,0,0,.49,1.581,1.6,1.6,0,0,0,1.335.675,1.619,1.619,0,0,0,1.422-.715,2.906,2.906,0,0,0,.43-1.726,2.294,2.294,0,0,0-.535-1.554,1.713,1.713,0,0,0-1.316-.555,1.65,1.65,0,0,0-1.362.661,2.731,2.731,0,0,0-.463,1.634m0,1.819v3h-.628v-7.539h.628v.946h.02a1.89,1.89,0,0,1,.813-.813,2.4,2.4,0,0,1,2.95.542,3.264,3.264,0,0,1,.556,2.01,3.209,3.209,0,0,1-.582,2,2.152,2.152,0,0,1-1.825.872,2.45,2.45,0,0,1-1.111-.264,2.016,2.016,0,0,1-.82-.754" transform="translate(-311.383 -213.427)" fill="#fff"/>
            <path id="패스_234" data-name="패스 234" d="M441.761,278.131a2.741,2.741,0,0,0-.423-1.614,1.648,1.648,0,0,0-1.416-.661,1.609,1.609,0,0,0-1.408.7,2.681,2.681,0,0,0-.43,1.574,2.652,2.652,0,0,0,.476,1.653,1.791,1.791,0,0,0,2.778-.078,2.77,2.77,0,0,0,.423-1.575m-1.839,2.857a2.413,2.413,0,0,1-1.772-.727,2.967,2.967,0,0,1-.733-2.13,3.044,3.044,0,0,1,.628-2.01,2.547,2.547,0,0,1,3.769-.014,3.156,3.156,0,0,1,.622,2.023,3.062,3.062,0,0,1-.695,2.077,2.283,2.283,0,0,1-1.818.78" transform="translate(-339.132 -213.427)" fill="#fff"/>
            <path id="패스_235" data-name="패스 235" d="M474.912,278.184v2.658h-.621v-5.409h.621v1.006h.026a1.855,1.855,0,0,1,.649-.9,2.088,2.088,0,0,1,1.111-.258v.681q-1.786-.039-1.786,2.222" transform="translate(-367.72 -213.427)" fill="#fff"/>
            <path id="패스_236" data-name="패스 236" d="M498.988,275.669v.516a4.812,4.812,0,0,1-.728.125c-.635,0-.952-.357-.952-1.078v-3.961h-.768v-.516h.768v-1.508h.621v1.508h1.018v.516H497.93v3.7a1.361,1.361,0,0,0,.079.582c.066.119.225.172.463.172a2.255,2.255,0,0,0,.516-.06" transform="translate(-384.971 -208.749)" fill="#fff"/>
          </g>
        </g>
      </g>
    </g>
  </g>
</svg>
